<svg id="cctv" xmlns="http://www.w3.org/2000/svg" width="1280" height="720" viewBox="0 0 1280 720"><title>cctv</title><rect width="1280" height="720" fill="#828487"/><rect width="1280" height="540" fill="#c4c6c8"/><rect width="1280" height="180" fill="#9d9fa2"/><rect y="360" width="1280" height="180" fill="#a9abae"/><g id="text"><path d="M365.6,379.3c-.9-2.6-1.9-5.6-2.9-8.9s-2-6.6-2.9-9.9-1.8-6.4-2.5-9.3-1.3-5.3-1.6-7.2h7.4c.2,1.8.6,3.9,1,6.4s1,4.9,1.6,7.4,1.1,5.1,1.7,7.6,1.3,4.7,1.9,6.7c.6-1.9,1.2-4.2,1.8-6.6s1.2-5.1,1.7-7.6l1.5-7.5c.4-2.5.8-4.6,1.1-6.4h7.4c-.5,2.3-1,4.8-1.7,7.6s-1.4,5.8-2.3,8.9-1.8,6.3-2.8,9.5-2.1,6.3-3.2,9.3Z" fill="#ee3354"/><path d="M410.1,378.1a15.3,15.3,0,0,1-4.1,1.4,15,15,0,0,1-3.5.4,12.6,12.6,0,0,1-4.6-.8,6.6,6.6,0,0,1-2.9-2.3,8.3,8.3,0,0,1-1.6-3.7,23.8,23.8,0,0,1-.5-4.9v-9.9h-7.4v-5.8h14.4v16.6a5.4,5.4,0,0,0,.9,3.5,3.5,3.5,0,0,0,3,1.2l2.3-.2a19.7,19.7,0,0,0,3.1-1.1Zm-10.4-33.3a4,4,0,0,1-1.4,3.2,4.3,4.3,0,0,1-3.1,1.2,4.5,4.5,0,0,1-3.1-1.2,3.9,3.9,0,0,1-1.3-3.2,4.2,4.2,0,0,1,1.3-3.3,4.5,4.5,0,0,1,3.1-1.2,4.3,4.3,0,0,1,3.1,1.2A4.2,4.2,0,0,1,399.7,344.8Z" fill="#ee3354"/><path d="M436.5,378.5a38,38,0,0,1-4.7,1,34.8,34.8,0,0,1-5.5.4c-4.2,0-7.4-1.2-9.5-3.7s-3.2-5.8-3.2-10.1.9-7.9,2.7-10.4a9.3,9.3,0,0,1,8-3.8,13.3,13.3,0,0,1,2.8.3,8.5,8.5,0,0,1,2.4.9V340.9l7-1.2Zm-15.8-12.8a11.5,11.5,0,0,0,1.3,5.9,4.8,4.8,0,0,0,4.3,2.3h1.6l1.6-.2V359l-1.9-.7a7.1,7.1,0,0,0-2.1-.3,3.9,3.9,0,0,0-3.7,2A12.2,12.2,0,0,0,420.7,365.7Z" fill="#ee3354"/><path d="M442.2,366.1a17.1,17.1,0,0,1,1.1-6.2,12.9,12.9,0,0,1,2.9-4.5,11.8,11.8,0,0,1,4-2.7,12.7,12.7,0,0,1,4.7-.9c4,0,7,1.2,9,3.5s3.1,5.8,3.1,10.2V367a5.7,5.7,0,0,0-.1,1.2H449.5a4.8,4.8,0,0,0,2.1,4.1,10,10,0,0,0,5.6,1.5,18.4,18.4,0,0,0,4.1-.4l3.2-1,.9,6-3.8,1.1a21.9,21.9,0,0,1-4.6.4,19.7,19.7,0,0,1-6.2-.9,12.3,12.3,0,0,1-4.6-2.6,11.7,11.7,0,0,1-2.9-4.3A15.7,15.7,0,0,1,442.2,366.1Zm18-2.8a6.5,6.5,0,0,0-1.2-3.9,4,4,0,0,0-1.6-1.2,4.3,4.3,0,0,0-2.4-.5,6.1,6.1,0,0,0-2.4.4,5.1,5.1,0,0,0-1.6,1.3,5.2,5.2,0,0,0-1,1.8,8,8,0,0,0-.5,2.1Z" fill="#ee3354"/><path d="M495.9,365.8a17.2,17.2,0,0,1-.9,5.8,14.3,14.3,0,0,1-2.6,4.5,11.8,11.8,0,0,1-4,2.9,11.9,11.9,0,0,1-5.1,1,12.7,12.7,0,0,1-5.2-1,14.1,14.1,0,0,1-4-2.9,16.6,16.6,0,0,1-2.6-4.5,17.2,17.2,0,0,1-.9-5.8,14.8,14.8,0,0,1,1-5.7,12.8,12.8,0,0,1,2.6-4.4,11.4,11.4,0,0,1,4-2.9,12.5,12.5,0,0,1,5.1-1,12.2,12.2,0,0,1,5.1,1,11.4,11.4,0,0,1,4,2.9,12.8,12.8,0,0,1,2.6,4.4A17,17,0,0,1,495.9,365.8Zm-18.1.1a12.2,12.2,0,0,0,1.2,5.8,4.5,4.5,0,0,0,4.2,2.2,4.5,4.5,0,0,0,4.1-2.2,13.1,13.1,0,0,0,.1-11.6,4.3,4.3,0,0,0-4.1-2.2,4.5,4.5,0,0,0-4.1,2.2A10.2,10.2,0,0,0,477.8,365.9Z" fill="#ee3354"/><path d="M533.9,379.3v-21H528v-5.8h5.9V351a12.1,12.1,0,0,1,1-5.4,8.3,8.3,0,0,1,2.5-3.5,12.2,12.2,0,0,1,3.6-1.8,20.2,20.2,0,0,1,4.3-.5,23.5,23.5,0,0,1,4.5.4,12.9,12.9,0,0,1,4.2,1.3l-1.2,5.7-3.2-1a17.6,17.6,0,0,0-3.8-.4H544a3.5,3.5,0,0,0-1.6.8,3.7,3.7,0,0,0-1,1.6,7.2,7.2,0,0,0-.4,2.8v1.4h11v5.8H541v21Z" fill="#ee3354"/><path d="M556.3,366.1a17.2,17.2,0,0,1,1-6.2,14.5,14.5,0,0,1,2.9-4.5,11.8,11.8,0,0,1,4-2.7,13.1,13.1,0,0,1,4.7-.9c4,0,7,1.2,9,3.5s3.1,5.8,3.1,10.2V367a5.7,5.7,0,0,0-.1,1.2H563.5a4.7,4.7,0,0,0,2.2,4.1,9.4,9.4,0,0,0,5.5,1.5,17.8,17.8,0,0,0,4.1-.4l3.2-1,1,6-3.9,1.1a21.9,21.9,0,0,1-4.6.4,19.7,19.7,0,0,1-6.2-.9,12.3,12.3,0,0,1-4.6-2.6,11.7,11.7,0,0,1-2.9-4.3A15.7,15.7,0,0,1,556.3,366.1Zm17.9-2.8a6.5,6.5,0,0,0-1.2-3.9,4,4,0,0,0-1.6-1.2,4.3,4.3,0,0,0-2.4-.5,5.3,5.3,0,0,0-2.3.4,4.5,4.5,0,0,0-1.7,1.3,5.2,5.2,0,0,0-1,1.8,8,8,0,0,0-.5,2.1Z" fill="#ee3354"/><path d="M584.8,366.1a17.2,17.2,0,0,1,1-6.2,14.5,14.5,0,0,1,2.9-4.5,11.8,11.8,0,0,1,4-2.7,13.1,13.1,0,0,1,4.7-.9c4,0,7,1.2,9,3.5s3.1,5.8,3.1,10.2V367c0,.5-.1.9-.1,1.2H592a4.7,4.7,0,0,0,2.2,4.1,9.5,9.5,0,0,0,5.6,1.5,17.5,17.5,0,0,0,4-.4l3.2-1,1,6-3.9,1.1a21.9,21.9,0,0,1-4.6.4,19.7,19.7,0,0,1-6.2-.9,12.3,12.3,0,0,1-4.6-2.6,11.7,11.7,0,0,1-2.9-4.3A15.7,15.7,0,0,1,584.8,366.1Zm17.9-2.8a6.5,6.5,0,0,0-1.2-3.9,4,4,0,0,0-1.6-1.2,4.3,4.3,0,0,0-2.4-.5,5.3,5.3,0,0,0-2.3.4,4.5,4.5,0,0,0-1.7,1.3,5.2,5.2,0,0,0-1,1.8,8,8,0,0,0-.5,2.1Z" fill="#ee3354"/><path d="M636,378.5a38,38,0,0,1-4.7,1,34.8,34.8,0,0,1-5.5.4c-4.2,0-7.3-1.2-9.5-3.7s-3.2-5.8-3.2-10.1.9-7.9,2.7-10.4a9.3,9.3,0,0,1,8-3.8,12.7,12.7,0,0,1,2.8.3,8.5,8.5,0,0,1,2.4.9V340.9l7-1.2Zm-15.8-12.8a11.4,11.4,0,0,0,1.4,5.9,4.6,4.6,0,0,0,4.3,2.3h1.6l1.5-.2V359a7.5,7.5,0,0,0-1.8-.7,7.8,7.8,0,0,0-2.2-.3,3.6,3.6,0,0,0-3.6,2A11,11,0,0,0,620.2,365.7Z" fill="#ee3354"/><path d="M672.1,353.3l4.6-.9a38.6,38.6,0,0,1,6.1-.5,14,14,0,0,1,5.3.9,7.6,7.6,0,0,1,3.3,2.5,9.9,9.9,0,0,1,1.7,3.9,19.7,19.7,0,0,1,.5,5v15.1h-7V365.1a13.9,13.9,0,0,0-.8-5.4,3.7,3.7,0,0,0-3.5-1.7h-3.2v21.1h-7Z" fill="#ee3354"/><path d="M723.9,365.8a17.2,17.2,0,0,1-.9,5.8,14.3,14.3,0,0,1-2.6,4.5,12.4,12.4,0,0,1-3.9,2.9,12.7,12.7,0,0,1-5.2,1,11.9,11.9,0,0,1-5.1-1,11.8,11.8,0,0,1-4-2.9,12.6,12.6,0,0,1-2.6-4.5,17.2,17.2,0,0,1-.9-5.8,17,17,0,0,1,.9-5.7,12.8,12.8,0,0,1,2.6-4.4,11.4,11.4,0,0,1,4-2.9,12.5,12.5,0,0,1,5.1-1,11.9,11.9,0,0,1,5.1,1,10.6,10.6,0,0,1,4,2.9,12.8,12.8,0,0,1,2.6,4.4A17,17,0,0,1,723.9,365.8Zm-18.1.1a11.1,11.1,0,0,0,1.3,5.8,4.3,4.3,0,0,0,4.1,2.2,4.5,4.5,0,0,0,4.1-2.2,10.2,10.2,0,0,0,1.4-5.8,11.1,11.1,0,0,0-1.3-5.8,4.3,4.3,0,0,0-4.1-2.2,4.5,4.5,0,0,0-4.1,2.2A11.1,11.1,0,0,0,705.8,365.9Z" fill="#ee3354"/><path d="M733.7,358.3h-6.1v-5.8h6.1v-6.7l7-1.2v7.9h11.2v5.8H740.7v10.8a7.8,7.8,0,0,0,.3,2.4,2.8,2.8,0,0,0,.8,1.5,2.3,2.3,0,0,0,1.2.6,4.7,4.7,0,0,0,1.7.2h1.8l1.6-.2,1.6-.5,1.7-.7,1,6a18.6,18.6,0,0,1-4.2,1.2l-4.3.3a19.4,19.4,0,0,1-4.4-.4,8.6,8.6,0,0,1-3.2-1.5,9.2,9.2,0,0,1-2-3.2,20.9,20.9,0,0,1-.6-5.5Z" fill="#ee3354"/><path d="M790.4,379.3v-21h-5.8v-5.8h5.8V351a13.7,13.7,0,0,1,1-5.4,9.3,9.3,0,0,1,2.5-3.5,11.6,11.6,0,0,1,3.7-1.8,18.6,18.6,0,0,1,4.2-.5,22.8,22.8,0,0,1,4.5.4,14.4,14.4,0,0,1,4.3,1.3l-1.2,5.7-3.3-1a16.7,16.7,0,0,0-3.7-.4h-1.9a2.8,2.8,0,0,0-1.5.8,3.8,3.8,0,0,0-1.1,1.6,7.2,7.2,0,0,0-.4,2.8v1.4h11v5.8h-11v21Z" fill="#ee3354"/><path d="M837.9,365.8a17.2,17.2,0,0,1-.9,5.8,11.7,11.7,0,0,1-6.5,7.4,12.7,12.7,0,0,1-5.2,1,11.9,11.9,0,0,1-5.1-1,11.8,11.8,0,0,1-4-2.9,14.3,14.3,0,0,1-2.6-4.5,17.2,17.2,0,0,1-.9-5.8,17,17,0,0,1,.9-5.7,12.8,12.8,0,0,1,2.6-4.4,12.9,12.9,0,0,1,14.2-2.9,10.6,10.6,0,0,1,4,2.9,12.8,12.8,0,0,1,2.6,4.4A17,17,0,0,1,837.9,365.8Zm-18.1.1a11.1,11.1,0,0,0,1.3,5.8,4.3,4.3,0,0,0,4.1,2.2,4.5,4.5,0,0,0,4.1-2.2,10.2,10.2,0,0,0,1.4-5.8,12.2,12.2,0,0,0-1.2-5.8,4.5,4.5,0,0,0-4.2-2.2,4.5,4.5,0,0,0-4.1,2.2A11.1,11.1,0,0,0,819.8,365.9Z" fill="#ee3354"/><path d="M864.5,378.4l-4.7,1a38.3,38.3,0,0,1-6,.5,13.8,13.8,0,0,1-5.4-.9,8.2,8.2,0,0,1-3.4-2.6,9.7,9.7,0,0,1-1.7-4,26,26,0,0,1-.4-5V352.5h7v14a12.7,12.7,0,0,0,.9,5.5,3.4,3.4,0,0,0,3.4,1.8,16.6,16.6,0,0,0,3.2-.3v-21h7.1Z" fill="#ee3354"/><path d="M871.6,353.3l4.7-.9a36.4,36.4,0,0,1,6-.5,13.6,13.6,0,0,1,5.3.9,7.6,7.6,0,0,1,3.3,2.5,11.7,11.7,0,0,1,1.8,3.9,25.7,25.7,0,0,1,.5,5v15.1h-7V365.1a11.9,11.9,0,0,0-.9-5.4c-.6-1.1-1.7-1.7-3.5-1.7h-3.2v21.1h-7Z" fill="#ee3354"/><path d="M921,378.5a31.3,31.3,0,0,1-4.7,1,33.9,33.9,0,0,1-5.5.4c-4.1,0-7.3-1.2-9.5-3.7s-3.2-5.8-3.2-10.1.9-7.9,2.7-10.4a9.3,9.3,0,0,1,8-3.8,12.7,12.7,0,0,1,2.8.3,8.5,8.5,0,0,1,2.4.9V340.9l7-1.2Zm-15.7-12.8a11.5,11.5,0,0,0,1.3,5.9,4.6,4.6,0,0,0,4.3,2.3h1.6l1.5-.2V359a7.5,7.5,0,0,0-1.8-.7,7.8,7.8,0,0,0-2.2-.3,3.8,3.8,0,0,0-3.6,2C905.6,361.3,905.3,363.2,905.3,365.7Z" fill="#ee3354"/></g></svg>